<svg width="21" height="21" viewBox="0 0 21 21" fill="none" xmlns="http://www.w3.org/2000/svg">
<path fill-rule="evenodd" clip-rule="evenodd" d="M3 0C1.34315 0 0 1.34315 0 3V18C0 19.6569 1.34315 21 3 21H18C19.6569 21 21 19.6569 21 18V3C21 1.34315 19.6569 0 18 0H3ZM8.01847 16.1435C8.72585 16.3906 9.53267 16.5142 10.4389 16.5142C10.8423 16.5142 11.2344 16.4858 11.6151 16.429C11.9986 16.375 12.3423 16.3026 12.6463 16.2116C12.9531 16.1236 13.196 16.0284 13.375 15.9261L12.9531 14.6903C12.7997 14.7528 12.5966 14.8168 12.3438 14.8821C12.0909 14.9503 11.8082 15.0071 11.4957 15.0526C11.1832 15.1009 10.8636 15.125 10.5369 15.125C9.84375 15.125 9.23011 15.0341 8.69602 14.8523C8.16193 14.6705 7.71307 14.4034 7.34943 14.0511C6.9858 13.6989 6.71023 13.2642 6.52273 12.7472C6.33807 12.2273 6.24432 11.6307 6.24148 10.9574C6.24432 10.3466 6.33239 9.78267 6.50568 9.26562C6.68182 8.74574 6.94602 8.29261 7.2983 7.90625C7.65057 7.51989 8.09091 7.22017 8.61932 7.0071C9.14773 6.79119 9.76562 6.68324 10.473 6.68324C10.8821 6.68324 11.2798 6.72443 11.6662 6.80682C12.0554 6.8892 12.4162 7.01989 12.7486 7.19886C13.081 7.37784 13.3722 7.6108 13.6222 7.89773C13.875 8.18182 14.071 8.52699 14.2102 8.93324C14.3523 9.33665 14.4233 9.8054 14.4233 10.3395C14.4233 10.8935 14.3892 11.3494 14.321 11.7074C14.2557 12.0653 14.1562 12.331 14.0227 12.5043C13.892 12.6776 13.7287 12.7642 13.5327 12.7642C13.3878 12.7642 13.2727 12.7102 13.1875 12.6023C13.1023 12.4943 13.0582 12.3423 13.0554 12.1463V7.98722H11.7216V8.46449H11.6619C11.6136 8.33949 11.4901 8.22301 11.2912 8.11506C11.0952 8.0071 10.8537 7.92898 10.5668 7.88068C10.2798 7.83239 9.97585 7.83239 9.65483 7.88068C9.37074 7.92045 9.08807 8.01136 8.80682 8.15341C8.52557 8.29545 8.26989 8.49148 8.03977 8.74148C7.8125 8.99148 7.62926 9.29972 7.49006 9.66619C7.35369 10.0327 7.28409 10.4631 7.28125 10.9574C7.28409 11.4574 7.35085 11.8977 7.48153 12.2784C7.61506 12.6591 7.79688 12.9787 8.02699 13.2372C8.25994 13.4957 8.52557 13.6932 8.82386 13.8295C9.125 13.9659 9.44318 14.044 9.77841 14.0639C10.0994 14.0838 10.402 14.0568 10.6861 13.983C10.973 13.9062 11.2159 13.7997 11.4148 13.6634C11.6136 13.5241 11.7472 13.3693 11.8153 13.1989H11.8665C11.8977 13.3949 11.9659 13.5668 12.071 13.7145C12.179 13.8594 12.3352 13.9688 12.5398 14.0426C12.7443 14.1165 13.0114 14.1406 13.3409 14.1151C13.8011 14.0895 14.1932 13.983 14.517 13.7955C14.8409 13.6051 15.1023 13.348 15.3011 13.0241C15.5028 12.6974 15.6506 12.3153 15.7443 11.8778C15.8381 11.4403 15.8835 10.9602 15.8807 10.4375C15.8835 9.67898 15.7628 8.98722 15.5185 8.36222C15.277 7.73437 14.9233 7.19318 14.4574 6.73864C13.9943 6.28125 13.429 5.92898 12.7614 5.68182C12.0966 5.43466 11.3409 5.31108 10.4943 5.31108C9.57955 5.31108 8.7642 5.44602 8.0483 5.71591C7.33523 5.9858 6.73153 6.37216 6.23722 6.875C5.7429 7.375 5.36648 7.97443 5.10795 8.6733C4.85227 9.37216 4.72443 10.1506 4.72443 11.0085C4.72443 11.8778 4.85227 12.6534 5.10795 13.3352C5.36364 14.017 5.7358 14.5938 6.22443 15.0653C6.71307 15.5398 7.31108 15.8991 8.01847 16.1435ZM11.0696 12.4616C10.8651 12.5952 10.5895 12.6619 10.2429 12.6619C9.87074 12.6619 9.5767 12.5795 9.3608 12.4148C9.14489 12.2472 8.99006 12.0298 8.89631 11.7628C8.80256 11.4929 8.75426 11.2074 8.75142 10.9062C8.75426 10.5824 8.8125 10.3011 8.92614 10.0625C9.04261 9.82102 9.21023 9.63352 9.42898 9.5C9.65057 9.36648 9.91903 9.29972 10.2344 9.29972C10.5952 9.29972 10.8764 9.36222 11.0781 9.48722C11.2827 9.60938 11.4261 9.78977 11.5085 10.0284C11.5938 10.2642 11.6378 10.5526 11.6406 10.8935C11.6463 11.2798 11.6037 11.6051 11.5128 11.8693C11.4247 12.1307 11.277 12.3281 11.0696 12.4616Z" fill="#606060"/>
</svg>
