<svg width="20" height="19" viewBox="0 0 20 19" fill="none" xmlns="http://www.w3.org/2000/svg">
<path d="M14.5833 18.1667H5.41662C5.04079 18.1667 4.72912 17.855 4.72912 17.4792C4.72912 17.1033 5.04079 16.7917 5.41662 16.7917H14.5833C14.9591 16.7917 15.2708 17.1033 15.2708 17.4792C15.2708 17.855 14.9591 18.1667 14.5833 18.1667Z" fill="white"/>
<path d="M17.6541 3.05999L13.9875 5.68166C13.5016 6.03 12.805 5.81916 12.5941 5.26L10.8616 0.639995C10.5683 -0.157505 9.44079 -0.157505 9.14746 0.639995L7.40579 5.25083C7.19496 5.81916 6.50746 6.03 6.02162 5.6725L2.35496 3.05083C1.62162 2.5375 0.649957 3.26166 0.952457 4.11416L4.76579 14.7933C4.89412 15.16 5.24246 15.3983 5.62746 15.3983H14.3633C14.7483 15.3983 15.0966 15.1508 15.225 14.7933L19.0383 4.11416C19.35 3.26166 18.3783 2.53749 17.6541 3.05999ZM12.2916 11.5208H7.70829C7.33246 11.5208 7.02079 11.2092 7.02079 10.8333C7.02079 10.4575 7.33246 10.1458 7.70829 10.1458H12.2916C12.6675 10.1458 12.9791 10.4575 12.9791 10.8333C12.9791 11.2092 12.6675 11.5208 12.2916 11.5208Z" fill="white"/>
</svg>
