<svg width="50" height="50" viewBox="0 0 50 50" fill="none" xmlns="http://www.w3.org/2000/svg">
<path d="M24.9998 4.16675C19.5415 4.16675 15.104 8.60425 15.104 14.0626C15.104 19.4167 19.2915 23.7501 24.7498 23.9376C24.9165 23.9167 25.0832 23.9167 25.2082 23.9376C25.2498 23.9376 25.2707 23.9376 25.3123 23.9376C25.3332 23.9376 25.3332 23.9376 25.354 23.9376C30.6873 23.7501 34.8748 19.4167 34.8957 14.0626C34.8957 8.60425 30.4582 4.16675 24.9998 4.16675Z" fill="#FF0000"/>
<path d="M35.5835 29.5C29.771 25.625 20.2918 25.625 14.4377 29.5C11.7918 31.25 10.3335 33.6458 10.3335 36.2083C10.3335 38.7708 11.7918 41.1458 14.4168 42.8958C17.3335 44.8542 21.1668 45.8333 25.0002 45.8333C28.8335 45.8333 32.6668 44.8542 35.5835 42.8958C38.2085 41.125 39.6668 38.75 39.6668 36.1667C39.646 33.625 38.2085 31.2292 35.5835 29.5ZM29.8543 34.5L24.6043 39.75C24.3543 40 24.021 40.125 23.6877 40.125C23.3543 40.125 23.021 39.9792 22.771 39.75L20.146 37.125C19.646 36.625 19.646 35.7917 20.146 35.2917C20.646 34.7917 21.4793 34.7917 21.9793 35.2917L23.6877 37L28.021 32.6667C28.521 32.1667 29.3543 32.1667 29.8543 32.6667C30.3752 33.1667 30.3752 34 29.8543 34.5Z" fill="#FF0000"/>
</svg>
