<svg width="30" height="32" viewBox="0 0 30 32" fill="none" xmlns="http://www.w3.org/2000/svg">
<path d="M18.3033 2.29583H9.15167C8.51833 2.29583 8.01167 1.78917 8.01167 1.15583C8.01167 0.5225 8.51833 0 9.15167 0H18.3033C18.9367 0 19.4433 0.506667 19.4433 1.14C19.4433 1.77333 18.9367 2.29583 18.3033 2.29583Z" fill="#FF0000"/>
<path d="M26.3467 20.5833H21.6917C19.6808 20.5833 18.4775 21.7867 18.4775 23.7975V28.4525C18.4775 30.4633 19.6808 31.6667 21.6917 31.6667H26.3467C28.3575 31.6667 29.5608 30.4633 29.5608 28.4525V23.7975C29.5608 21.7867 28.3575 20.5833 26.3467 20.5833ZM25.9033 27.645L24.035 28.7217C23.655 28.9433 23.275 29.0542 22.9267 29.0542C22.6575 29.0542 22.42 28.9908 22.1983 28.8642C21.6917 28.5633 21.4067 27.9775 21.4067 27.2017V25.0483C21.4067 24.2725 21.6917 23.6867 22.1983 23.3858C22.705 23.085 23.3542 23.1483 24.035 23.5283L25.9033 24.605C26.5683 25.0008 26.9483 25.5392 26.9483 26.125C26.9483 26.7108 26.5842 27.2492 25.9033 27.645Z" fill="#FF0000"/>
<path d="M16.8942 28.4525V23.7975C16.8942 20.9317 18.8258 19 21.6917 19H26.3467C26.7108 19 27.0592 19.0317 27.3917 19.095C27.4233 18.715 27.455 18.335 27.455 17.9392C27.455 10.355 21.2958 4.19583 13.7275 4.19583C6.15917 4.19583 0 10.355 0 17.9392C0 25.5075 6.15917 31.6667 13.7275 31.6667C15.0733 31.6667 16.3558 31.445 17.5908 31.0967C17.1475 30.3525 16.8942 29.4658 16.8942 28.4525ZM14.915 17.4167C14.915 18.0658 14.3767 18.6042 13.7275 18.6042C13.0783 18.6042 12.54 18.0658 12.54 17.4167V9.5C12.54 8.85083 13.0783 8.3125 13.7275 8.3125C14.3767 8.3125 14.915 8.85083 14.915 9.5V17.4167Z" fill="#FF0000"/>
</svg>
