<svg width="70" height="21" viewBox="0 0 70 21" fill="none" xmlns="http://www.w3.org/2000/svg">
<path fill-rule="evenodd" clip-rule="evenodd" d="M3 0C1.34314 0 0 1.34314 0 3V18C0 19.6569 1.34314 21 3 21H67C68.6569 21 70 19.6569 70 18V3C70 1.34314 68.6569 0 67 0H3ZM16.1985 7.80255C16.494 8.00995 16.6616 8.29971 16.7014 8.67188H18.2227C18.2141 8.18039 18.0764 7.74573 17.8093 7.36789C17.5423 6.98721 17.1743 6.69034 16.7056 6.47726C16.2397 6.26135 15.6971 6.15341 15.0778 6.15341C14.467 6.15341 13.9201 6.26135 13.4371 6.47726C12.9542 6.69034 12.5721 6.99005 12.2908 7.37643C12.0124 7.76279 11.8732 8.21307 11.8732 8.72726C11.8732 9.35226 12.0806 9.8537 12.4954 10.2315C12.913 10.6065 13.4812 10.8864 14.1999 11.071L15.1928 11.3267C15.5053 11.4062 15.778 11.4972 16.011 11.5994C16.2468 11.6989 16.4301 11.8239 16.5607 11.9744C16.6914 12.1222 16.7582 12.3097 16.761 12.5369C16.7582 12.7869 16.6829 13.0057 16.5352 13.1932C16.3874 13.3778 16.1829 13.5227 15.9215 13.6278C15.663 13.7301 15.3618 13.7812 15.0181 13.7812C14.6886 13.7812 14.3903 13.7315 14.1232 13.6321C13.859 13.5327 13.6445 13.3821 13.4798 13.1804C13.315 12.9787 13.2212 12.7259 13.1985 12.4219H11.6431C11.6658 13.0014 11.8164 13.4929 12.0948 13.8963C12.3761 14.2997 12.7653 14.6065 13.2624 14.8168C13.7624 15.027 14.3519 15.1321 15.0309 15.1321C15.7298 15.1321 16.3249 15.0241 16.8164 14.8082C17.3107 14.5895 17.6886 14.2869 17.9499 13.9006C18.2113 13.5114 18.342 13.0611 18.342 12.5497C18.342 12.1719 18.271 11.8423 18.1289 11.5611C17.9868 11.2798 17.7937 11.0398 17.5493 10.8409C17.3079 10.6421 17.0337 10.4773 16.7269 10.3466C16.4229 10.2159 16.1062 10.1122 15.7766 10.0355L14.9585 9.83096C14.7795 9.78836 14.6019 9.73581 14.4258 9.67331C14.2496 9.61081 14.0891 9.53409 13.9442 9.44318C13.7993 9.34943 13.6843 9.23581 13.5991 9.10226C13.5167 8.96875 13.4755 8.81107 13.4755 8.62927C13.4783 8.41052 13.5423 8.21591 13.6673 8.04544C13.7923 7.875 13.9727 7.74005 14.2085 7.64062C14.4442 7.5412 14.7269 7.49149 15.0565 7.49149C15.5252 7.49149 15.9059 7.59518 16.1985 7.80255ZM19.3679 6.27274V7.59802H22.0653V15H23.6335V7.59802H26.331V6.27274H19.3679ZM26.0518 15H27.7393L28.4611 12.848H31.7422L32.4652 15H34.1527L31.076 6.27274H29.1243L26.0518 15ZM31.3155 11.5781L30.1342 8.0625H30.066L28.887 11.5781H31.3155ZM33.864 6.27274V7.59802H36.5614V15H38.1296V7.59802H40.8271V6.27274H33.864ZM49.2518 6.27274H47.6708V11.8423C47.6708 12.206 47.5913 12.5298 47.4322 12.8139C47.2731 13.098 47.0458 13.321 46.7504 13.4829C46.4577 13.6421 46.1111 13.7216 45.7106 13.7216C45.31 13.7216 44.9634 13.6421 44.6708 13.4829C44.3782 13.321 44.1509 13.098 43.989 12.8139C43.8299 12.5298 43.7504 12.206 43.7504 11.8423V6.27274H42.1694V11.9744C42.1694 12.5994 42.3157 13.1491 42.6083 13.6236C42.9009 14.098 43.3129 14.4688 43.8441 14.7358C44.3754 15 44.9975 15.1321 45.7106 15.1321C46.4208 15.1321 47.0415 15 47.5728 14.7358C48.104 14.4688 48.516 14.098 48.8086 13.6236C49.104 13.1491 49.2518 12.5994 49.2518 11.9744V6.27274ZM55.2102 7.80255C55.5057 8.00995 55.6733 8.29971 55.7131 8.67188H57.2344C57.2259 8.18039 57.0881 7.74573 56.821 7.36789C56.554 6.98721 56.1861 6.69034 55.7173 6.47726C55.2514 6.26135 54.7088 6.15341 54.0895 6.15341C53.4787 6.15341 52.9318 6.26135 52.4489 6.47726C51.9659 6.69034 51.5838 6.99005 51.3026 7.37643C51.0241 7.76279 50.8849 8.21307 50.8849 8.72726C50.8849 9.35226 51.0923 9.8537 51.5071 10.2315C51.9247 10.6065 52.4929 10.8864 53.2116 11.071L54.2046 11.3267C54.5171 11.4062 54.7898 11.4972 55.0227 11.5994C55.2585 11.6989 55.4418 11.8239 55.5724 11.9744C55.7031 12.1222 55.7699 12.3097 55.7727 12.5369C55.7699 12.7869 55.6946 13.0057 55.5469 13.1932C55.3991 13.3778 55.1946 13.5227 54.9332 13.6278C54.6747 13.7301 54.3736 13.7812 54.0298 13.7812C53.7003 13.7812 53.402 13.7315 53.1349 13.6321C52.8707 13.5327 52.6562 13.3821 52.4915 13.1804C52.3267 12.9787 52.2329 12.7259 52.2102 12.4219H50.6548C50.6776 13.0014 50.8281 13.4929 51.1065 13.8963C51.3878 14.2997 51.777 14.6065 52.2741 14.8168C52.7741 15.027 53.3636 15.1321 54.0426 15.1321C54.7415 15.1321 55.3366 15.0241 55.8281 14.8082C56.3224 14.5895 56.7003 14.2869 56.9616 13.9006C57.223 13.5114 57.3537 13.0611 57.3537 12.5497C57.3537 12.1719 57.2827 11.8423 57.1406 11.5611C56.9986 11.2798 56.8054 11.0398 56.5611 10.8409C56.3196 10.6421 56.0454 10.4773 55.7386 10.3466C55.4347 10.2159 55.1179 10.1122 54.7884 10.0355L53.9702 9.83096C53.7912 9.78836 53.6136 9.73581 53.4375 9.67331C53.2614 9.61081 53.1009 9.53409 52.956 9.44318C52.8111 9.34943 52.696 9.23581 52.6108 9.10226C52.5284 8.96875 52.4872 8.81107 52.4872 8.62927C52.4901 8.41052 52.554 8.21591 52.679 8.04544C52.804 7.875 52.9844 7.74005 53.2202 7.64062C53.456 7.5412 53.7386 7.49149 54.0682 7.49149C54.5369 7.49149 54.9176 7.59518 55.2102 7.80255Z" fill="#606060"/>
</svg>
