<svg width="50" height="50" viewBox="0 0 50 50" fill="none" xmlns="http://www.w3.org/2000/svg">
<path d="M25.0001 4.1665C13.5001 4.1665 4.16675 13.4998 4.16675 24.9998C4.16675 36.4998 13.5001 45.8332 25.0001 45.8332C36.5001 45.8332 45.8334 36.4998 45.8334 24.9998C45.8334 13.4998 36.5001 4.1665 25.0001 4.1665ZM25.0001 18.229C24.1459 18.229 23.4376 17.5207 23.4376 16.6665C23.4376 15.8123 24.1459 15.104 25.0001 15.104C30.4584 15.104 34.8959 19.5415 34.8959 24.9998C34.8959 30.4582 30.4584 34.8957 25.0001 34.8957C24.1459 34.8957 23.4376 34.1873 23.4376 33.3332C23.4376 32.479 24.1459 31.7707 25.0001 31.7707C28.7292 31.7707 31.7709 28.729 31.7709 24.9998C31.7709 21.2707 28.7292 18.229 25.0001 18.229ZM25.0001 41.1457C16.1042 41.1457 8.85425 33.8957 8.85425 24.9998C8.85425 24.1457 9.56258 23.4373 10.4167 23.4373C11.2709 23.4373 11.9792 24.1457 11.9792 24.9998C11.9792 32.1873 17.8126 38.0207 25.0001 38.0207C32.1876 38.0207 38.0209 32.1873 38.0209 24.9998C38.0209 17.8123 32.1876 11.979 25.0001 11.979C24.1459 11.979 23.4376 11.2707 23.4376 10.4165C23.4376 9.56234 24.1459 8.854 25.0001 8.854C33.8959 8.854 41.1459 16.104 41.1459 24.9998C41.1459 33.8957 33.8959 41.1457 25.0001 41.1457Z" fill="#FF0000"/>
</svg>
