<svg width="17" height="19" viewBox="0 0 17 19" fill="none" xmlns="http://www.w3.org/2000/svg">
<path d="M8.50014 11.25C4.11639 11.25 0.546387 14.19 0.546387 17.8125C0.546387 18.0575 0.738887 18.25 0.983887 18.25H16.0164C16.2614 18.25 16.4539 18.0575 16.4539 17.8125C16.4539 14.19 12.8839 11.25 8.50014 11.25Z" fill="white"/>
<path d="M8.50014 0.75C7.46764 0.75 6.52264 1.10875 5.77014 1.7125C4.76389 2.50875 4.12514 3.7425 4.12514 5.125C4.12514 5.9475 4.35264 6.7175 4.76389 7.37375C5.51639 8.6425 6.89889 9.5 8.50014 9.5C9.60264 9.5 10.6089 9.0975 11.3789 8.40625C11.7201 8.1175 12.0176 7.7675 12.2451 7.37375C12.6476 6.7175 12.8751 5.9475 12.8751 5.125C12.8751 2.71 10.9151 0.75 8.50014 0.75ZM10.7664 4.6525L8.43014 6.805C8.27264 6.95375 8.07139 7.02375 7.87014 7.02375C7.66014 7.02375 7.45014 6.945 7.29264 6.7875L6.21639 5.7025C5.89264 5.37875 5.89264 4.8625 6.21639 4.53875C6.54014 4.215 7.05639 4.215 7.38014 4.53875L7.89639 5.055L9.65514 3.43625C9.98764 3.13 10.5039 3.1475 10.8101 3.48C11.1164 3.82125 11.0989 4.34625 10.7664 4.6525Z" fill="white"/>
</svg>
