<svg width="95" height="95" viewBox="0 0 95 95" fill="none" xmlns="http://www.w3.org/2000/svg">
<path d="M85.3267 28.4885C84.8758 26.8125 83.9925 25.2844 82.7652 24.0572C81.538 22.8299 80.0099 21.9466 78.3339 21.4957C73.7531 19.7271 29.384 18.8606 16.513 21.5464C14.8369 21.9974 13.3087 22.8808 12.0814 24.1082C10.8541 25.3355 9.97074 26.8638 9.51985 28.54C7.45241 37.6105 7.29546 57.2209 9.57051 66.4938C10.0215 68.1699 10.9049 69.698 12.1322 70.9253C13.3595 72.1526 14.8877 73.0359 16.5637 73.4868C25.634 75.5745 68.7567 75.8684 78.3846 73.4868C80.0605 73.0359 81.5887 72.1525 82.8159 70.9253C84.0431 69.698 84.9264 68.1698 85.3773 66.4938C87.5817 56.6119 87.7387 38.2181 85.3267 28.4885Z" stroke="white" stroke-width="8" stroke-linecap="round" stroke-linejoin="round"/>
<path d="M59.8679 49.2468C61.2358 48.484 61.2358 46.5162 59.8679 45.7534L39.9741 34.6587C38.641 33.9152 37 34.879 37 36.4054V58.5946C37 60.121 38.641 61.0848 39.9741 60.3414L59.8679 49.2468Z" fill="white"/>
</svg>
