<svg width="18" height="18" viewBox="0 0 18 18" fill="none" xmlns="http://www.w3.org/2000/svg">
<path d="M12.4163 0H5.08375C1.89875 0 0 1.89875 0 5.08375V12.4075C0 15.6013 1.89875 17.5 5.08375 17.5H12.4075C15.5925 17.5 17.4912 15.6013 17.4912 12.4163V5.08375C17.5 1.89875 15.6013 0 12.4163 0ZM8.3125 13.3438C8.3125 13.6587 7.9975 13.8687 7.70875 13.7462C6.65 13.2912 5.2675 12.8713 4.305 12.7487L4.13875 12.7312C3.605 12.6612 3.1675 12.1625 3.1675 11.62V4.8825C3.1675 4.20875 3.71 3.71 4.375 3.7625C5.46875 3.85 7.0875 4.375 8.1025 4.9525C8.2425 5.03125 8.3125 5.18 8.3125 5.32875V13.3438ZM14.3325 11.6112C14.3325 12.1538 13.895 12.6525 13.3612 12.7225L13.1775 12.74C12.2237 12.8712 10.85 13.2825 9.79125 13.7288C9.5025 13.8513 9.1875 13.6412 9.1875 13.3263V5.32C9.1875 5.1625 9.26625 5.01375 9.40625 4.935C10.4213 4.36625 12.005 3.85875 13.0813 3.7625H13.1163C13.79 3.7625 14.3325 4.305 14.3325 4.97875V11.6112Z" fill="white"/>
</svg>
