<svg width="42" height="42" viewBox="0 0 42 42" fill="none" xmlns="http://www.w3.org/2000/svg">
<path d="M29.8139 0H12.2071C4.55927 0 0 4.557 0 12.201V29.778C0 37.443 4.55927 42 12.2071 42H29.7928C37.4407 42 41.9999 37.443 41.9999 29.799V12.201C42.0209 4.557 37.4617 0 29.8139 0ZM19.9599 32.025C19.9599 32.781 19.2036 33.285 18.5102 32.991C15.968 31.899 12.6483 30.891 10.3372 30.597L9.93795 30.555C8.65631 30.387 7.60579 29.19 7.60579 27.888V11.718C7.60579 10.101 8.90844 8.904 10.5052 9.03C13.1315 9.24 17.0185 10.5 19.4557 11.886C19.7919 12.075 19.9599 12.432 19.9599 12.789V32.025ZM34.4151 27.867C34.4151 29.169 33.3646 30.366 32.083 30.534L31.6418 30.576C29.3516 30.891 26.053 31.878 23.5107 32.949C22.8174 33.243 22.061 32.739 22.061 31.983V12.768C22.061 12.39 22.2501 12.033 22.5863 11.844C25.0235 10.479 28.8264 9.261 31.4107 9.03H31.4947C33.1125 9.03 34.4151 10.332 34.4151 11.949V27.867Z" fill="#FF0000"/>
</svg>
