<svg width="19" height="19" viewBox="0 0 19 19" fill="none" xmlns="http://www.w3.org/2000/svg">
<path d="M17.4537 5.10746C16.7099 4.28496 15.4674 3.87371 13.6649 3.87371H13.4549V3.83871C13.4549 2.36871 13.4549 0.548706 10.1649 0.548706H8.83491C5.54491 0.548706 5.54491 2.37746 5.54491 3.83871V3.88246H5.33491C3.52366 3.88246 2.28991 4.29371 1.54616 5.11621C0.679911 6.07871 0.706161 7.37371 0.793661 8.25746L0.802411 8.31871L0.867366 9.00074C0.88163 9.15051 0.962325 9.28584 1.08829 9.36811C1.30011 9.50645 1.63252 9.72002 1.83491 9.83246C1.95741 9.91121 2.08866 9.98121 2.21991 10.0512C3.71616 10.8737 5.36116 11.425 7.03241 11.6962C7.11116 12.5187 7.46991 13.4812 9.38616 13.4812C11.3024 13.4812 11.6787 12.5275 11.7399 11.6787C13.5249 11.39 15.2487 10.7687 16.8062 9.85871C16.8587 9.83246 16.8937 9.8062 16.9374 9.77995C17.2767 9.58817 17.6285 9.35285 17.9507 9.12118C18.0639 9.03983 18.1362 8.91371 18.1516 8.7752L18.1624 8.67746L18.2062 8.26621C18.2149 8.21371 18.2149 8.16996 18.2237 8.10871C18.2937 7.22496 18.2762 6.01746 17.4537 5.10746ZM10.4537 11.1012C10.4537 12.0287 10.4537 12.1687 9.37741 12.1687C8.30116 12.1687 8.30116 12.0025 8.30116 11.11V10.0075H10.4537V11.1012ZM6.79616 3.83871C6.79616 2.35121 6.79616 1.79996 8.83491 1.79996H10.1649C12.2037 1.79996 12.2037 2.35996 12.2037 3.83871V3.88246H6.79616V3.83871Z" fill="white"/>
<path d="M17.1639 11.065C17.5178 10.8974 17.9242 11.1783 17.8888 11.5683L17.5849 14.9162C17.4012 16.6662 16.6837 18.4512 12.8337 18.4512H6.16616C2.31616 18.4512 1.59866 16.6662 1.41491 14.925L1.1267 11.7546C1.09166 11.3692 1.48934 11.0889 1.84227 11.2478C2.84808 11.7007 4.58183 12.4488 5.68372 12.7433C5.84782 12.7871 5.98082 12.905 6.05452 13.058C6.59195 14.174 7.73797 14.7675 9.38616 14.7675C11.0181 14.7675 12.1783 14.1511 12.7176 13.032C12.7914 12.8788 12.9244 12.761 13.0886 12.7169C14.26 12.4021 16.1098 11.5641 17.1639 11.065Z" fill="white"/>
</svg>
