<svg width="50" height="50" viewBox="0 0 50 50" fill="none" xmlns="http://www.w3.org/2000/svg">
<path d="M36.5207 16.1876C36.3748 16.1667 36.229 16.1667 36.0832 16.1876C32.854 16.0834 30.2915 13.4376 30.2915 10.1876C30.2915 6.87508 32.979 4.16675 36.3123 4.16675C39.6248 4.16675 42.3332 6.85425 42.3332 10.1876C42.3123 13.4376 39.7498 16.0834 36.5207 16.1876Z" fill="#FF0000"/>
<path d="M43.3127 30.6251C40.9793 32.1876 37.7085 32.7709 34.6877 32.3751C35.4793 30.6668 35.896 28.7709 35.9168 26.7709C35.9168 24.6876 35.4585 22.7084 34.5835 20.9793C37.6668 20.5626 40.9377 21.1459 43.2918 22.7084C46.5835 24.8751 46.5835 28.4376 43.3127 30.6251Z" fill="#FF0000"/>
<path d="M13.4167 16.1876C13.5625 16.1667 13.7083 16.1667 13.8542 16.1876C17.0833 16.0834 19.6458 13.4376 19.6458 10.1876C19.6458 6.85425 16.9583 4.16675 13.625 4.16675C10.3125 4.16675 7.625 6.85425 7.625 10.1876C7.625 13.4376 10.1875 16.0834 13.4167 16.1876Z" fill="#FF0000"/>
<path d="M13.6458 26.7708C13.6458 28.7917 14.0833 30.7083 14.875 32.4375C11.9375 32.75 8.875 32.125 6.625 30.6458C3.33333 28.4583 3.33333 24.8958 6.625 22.7083C8.85417 21.2083 12 20.6042 14.9583 20.9375C14.1042 22.6875 13.6458 24.6667 13.6458 26.7708Z" fill="#FF0000"/>
<path d="M25.25 33.0625C25.0833 33.0417 24.8958 33.0417 24.7083 33.0625C20.875 32.9375 17.8125 29.7917 17.8125 25.9167C17.8333 21.9583 21.0208 18.75 25 18.75C28.9583 18.75 32.1667 21.9583 32.1667 25.9167C32.1458 29.7917 29.1042 32.9375 25.25 33.0625Z" fill="#FF0000"/>
<path d="M18.479 37.375C15.3332 39.4792 15.3332 42.9375 18.479 45.0208C22.0623 47.4167 27.9373 47.4167 31.5207 45.0208C34.6665 42.9167 34.6665 39.4583 31.5207 37.375C27.9582 34.9792 22.0832 34.9792 18.479 37.375Z" fill="#FF0000"/>
</svg>
