<svg width="24" height="31" viewBox="0 0 24 31" fill="none" xmlns="http://www.w3.org/2000/svg">
<path d="M20.9961 5.41221V6.55978L15.5148 3.38069C13.44 2.18659 10.5445 2.18659 8.48516 3.38069L3.00387 6.57529V5.41221C3.00387 1.92296 4.90839 0 8.39226 0H15.6077C19.0916 0 20.9961 1.92296 20.9961 5.41221Z" fill="#FF0004"/>
<path d="M21.0426 9.25813L20.8258 9.14958L18.72 7.93997L14.3535 5.41221C13.0219 4.63682 10.9781 4.63682 9.64645 5.41221L5.28 7.92446L3.17419 9.16508L2.89548 9.30465C0.185806 11.1346 0 11.4757 0 14.4067V21.4162C0 24.3472 0.185806 24.6883 2.95742 26.5648L9.64645 30.4262C10.3123 30.8294 11.1484 31 12 31C12.8361 31 13.6877 30.8139 14.3535 30.4262L21.1045 26.5183C23.8297 24.6883 24 24.3627 24 21.4162V14.4067C24 11.4757 23.8142 11.1346 21.0426 9.25813ZM16.32 17.8339L15.3755 18.997C15.2206 19.1676 15.1123 19.4932 15.1277 19.7259L15.2206 21.2146C15.2826 22.1296 14.6323 22.5948 13.7806 22.2691L12.4026 21.7109C12.1858 21.6333 11.8297 21.6333 11.6129 21.7109L10.2348 22.2536C9.38323 22.5948 8.7329 22.1141 8.79484 21.1991L8.88774 19.7104C8.90322 19.4777 8.79484 19.1521 8.64 18.9815L7.68 17.8339C7.09161 17.1361 7.35484 16.3607 8.23742 16.1281L9.67742 15.7559C9.90968 15.6938 10.1729 15.4767 10.2968 15.2906L11.1019 14.05C11.5974 13.2746 12.3871 13.2746 12.8981 14.05L13.7032 15.2906C13.8271 15.4922 14.1058 15.6938 14.3226 15.7559L15.7626 16.1281C16.6452 16.3607 16.9084 17.1361 16.32 17.8339Z" fill="#FF0004"/>
</svg>
