<svg width="41" height="42" viewBox="0 0 41 42" fill="none" xmlns="http://www.w3.org/2000/svg">
<path d="M37.7632 20.9974V33.599C37.7632 38.2405 33.9005 42 29.1316 42H11.8684C7.09947 42 3.23684 38.2405 3.23684 33.599V20.9974C3.23684 19.8422 4.2079 18.8971 5.39474 18.8971H9.64579C10.8326 18.8971 11.8037 19.8422 11.8037 20.9974V27.5922C11.8037 29.1464 12.6884 30.5746 14.0911 31.3097C14.7168 31.6457 15.4074 31.8137 16.1195 31.8137C16.9395 31.8137 17.7595 31.5827 18.4716 31.1206L20.5216 29.8185L22.4205 31.0576C23.7368 31.9187 25.42 32.0238 26.8226 31.2887C28.2468 30.5536 29.1316 29.1464 29.1316 27.5712V20.9974C29.1316 19.8422 30.1026 18.8971 31.2895 18.8971H35.6053C36.7921 18.8971 37.7632 19.8422 37.7632 20.9974Z" fill="#FF0000"/>
<path d="M41 10.4961V12.5963C41 14.9066 39.8563 16.7968 36.6842 16.7968H4.31579C1.01421 16.7968 0 14.9066 0 12.5963V10.4961C0 8.18577 1.01421 6.29554 4.31579 6.29554H36.6842C39.8563 6.29554 41 8.18577 41 10.4961Z" fill="#FF0000"/>
<path d="M19.7232 6.29554H7.81158C7.07789 5.51844 7.09947 4.32129 7.87632 3.5652L10.9405 0.582823C11.7389 -0.194274 13.0553 -0.194274 13.8537 0.582823L19.7232 6.29554Z" fill="#FF0000"/>
<path d="M33.1668 6.29554H21.2553L27.1247 0.582823C27.9232 -0.194274 29.2395 -0.194274 30.0379 0.582823L33.1021 3.5652C33.879 4.32129 33.9005 5.51844 33.1668 6.29554Z" fill="#FF0000"/>
<path d="M24.7511 18.8971C25.9379 18.8971 26.9089 19.8422 26.9089 20.9974V27.5712C26.9089 29.2514 24.9884 30.2595 23.5642 29.3144L21.6221 28.0543C20.91 27.5922 19.9821 27.5922 19.2484 28.0543L17.22 29.3564C15.7958 30.2805 13.8968 29.2724 13.8968 27.6132V20.9974C13.8968 19.8422 14.8679 18.8971 16.0547 18.8971H24.7511Z" fill="#FF0000"/>
</svg>
