<svg width="45" height="40" viewBox="0 0 45 40" fill="none" xmlns="http://www.w3.org/2000/svg">
<path d="M37.3332 15.2243C34.8221 15.2243 32.5777 16.4538 31.1777 18.3317C29.7777 16.4538 27.5333 15.2243 25.0222 15.2243C20.7777 15.2243 17.3333 18.7118 17.3333 23.0041C17.3333 24.6584 17.6 26.2009 18.0444 27.6093C20.2222 34.562 26.9777 38.7425 30.311 39.8826C30.7777 40.0391 31.5555 40.0391 32.0221 39.8826C35.3555 38.7425 42.111 34.5843 44.2888 27.6093C44.7554 26.1786 44.9999 24.6584 44.9999 23.0041C45.0221 18.7118 41.5777 15.2243 37.3332 15.2243Z" fill="#FF0000"/>
<path d="M41.6666 11.7144C41.6666 12.2286 41.1555 12.5639 40.6666 12.4298C37.6666 11.6473 34.3777 12.2957 31.8888 14.0841C31.3999 14.4418 30.7333 14.4418 30.2666 14.0841C28.511 12.7875 26.3777 12.0721 24.1333 12.0721C18.4 12.0721 13.7333 16.7892 13.7333 22.6016C13.7333 28.906 16.7333 33.623 19.7555 36.7752C19.9111 36.9317 19.7777 37.1999 19.5777 37.1105C13.5111 35.0314 0 26.4021 0 11.7144C0 5.23124 5.17777 0 11.5778 0C15.3777 0 18.7333 1.83317 20.8444 4.67235C22.9777 1.83317 26.3333 0 30.111 0C36.4888 0 41.6666 5.23124 41.6666 11.7144Z" fill="#FF0000"/>
</svg>
