<svg width="95" height="95" viewBox="0 0 95 95" fill="none" xmlns="http://www.w3.org/2000/svg">
<path fill-rule="evenodd" clip-rule="evenodd" d="M47.5 71.25C60.6167 71.25 71.25 60.6167 71.25 47.5C71.25 34.3832 60.6167 23.75 47.5 23.75C34.3832 23.75 23.75 34.3832 23.75 47.5C23.75 60.6167 34.3832 71.25 47.5 71.25ZM47.5 63.3333C56.2444 63.3333 63.3333 56.2444 63.3333 47.5C63.3333 38.7555 56.2444 31.6667 47.5 31.6667C38.7555 31.6667 31.6667 38.7555 31.6667 47.5C31.6667 56.2444 38.7555 63.3333 47.5 63.3333Z" fill="white"/>
<path d="M71.2498 19.792C69.0636 19.792 67.2915 21.5642 67.2915 23.7503C67.2915 25.9364 69.0636 27.7087 71.2498 27.7087C73.436 27.7087 75.2082 25.9364 75.2082 23.7503C75.2082 21.5642 73.436 19.792 71.2498 19.792Z" fill="white"/>
<path fill-rule="evenodd" clip-rule="evenodd" d="M6.54709 16.9257C3.9585 22.0061 3.9585 28.6568 3.9585 41.958V53.0413C3.9585 66.3425 3.9585 72.9933 6.54709 78.0734C8.82408 82.5424 12.4574 86.1758 16.9262 88.4526C22.0066 91.0413 28.6573 91.0413 41.9585 91.0413H53.0418C66.343 91.0413 72.9938 91.0413 78.0739 88.4526C82.5429 86.1758 86.1762 82.5424 88.4531 78.0734C91.0418 72.9933 91.0418 66.3425 91.0418 53.0413V41.958C91.0418 28.6568 91.0418 22.0061 88.4531 16.9257C86.1762 12.4569 82.5429 8.82359 78.0739 6.5466C72.9938 3.95801 66.343 3.95801 53.0418 3.95801H41.9585C28.6573 3.95801 22.0066 3.95801 16.9262 6.5466C12.4574 8.82359 8.82408 12.4569 6.54709 16.9257ZM53.0418 11.8747H41.9585C35.1772 11.8747 30.5674 11.8808 27.0042 12.1719C23.5334 12.4555 21.7585 12.9695 20.5203 13.6004C17.5411 15.1184 15.1189 17.5406 13.6009 20.5198C12.97 21.758 12.456 23.5329 12.1724 27.0037C11.8813 30.5669 11.8752 35.1767 11.8752 41.958V53.0413C11.8752 59.8228 11.8813 64.4322 12.1724 67.9955C12.456 71.4666 12.97 73.2415 13.6009 74.4797C15.1189 77.4587 17.5411 79.8808 20.5203 81.3988C21.7585 82.0298 23.5334 82.544 27.0042 82.8274C30.5674 83.1183 35.1772 83.1247 41.9585 83.1247H53.0418C59.8232 83.1247 64.4327 83.1183 67.996 82.8274C71.4671 82.544 73.242 82.0298 74.4802 81.3988C77.4592 79.8808 79.8813 77.4587 81.3993 74.4797C82.0303 73.2415 82.5445 71.4666 82.8279 67.9955C83.1188 64.4322 83.1252 59.8228 83.1252 53.0413V41.958C83.1252 35.1767 83.1188 30.5669 82.8279 27.0037C82.5445 23.5329 82.0303 21.758 81.3993 20.5198C79.8813 17.5406 77.4592 15.1184 74.4802 13.6004C73.242 12.9695 71.4671 12.4555 67.996 12.1719C64.4327 11.8808 59.8232 11.8747 53.0418 11.8747Z" fill="white"/>
</svg>
