<svg width="50" height="50" viewBox="0 0 50 50" fill="none" xmlns="http://www.w3.org/2000/svg">
<path d="M40.646 12.1876L28.271 5.04175C26.2502 3.87508 23.7502 3.87508 21.7085 5.04175L9.35433 12.1876C7.3335 13.3542 6.0835 15.5209 6.0835 17.8751V32.1251C6.0835 34.4584 7.3335 36.6251 9.35433 37.8126L21.7293 44.9584C23.7502 46.1251 26.2502 46.1251 28.2918 44.9584L40.6668 37.8126C42.6877 36.6459 43.9377 34.4792 43.9377 32.1251V17.8751C43.9168 15.5209 42.6668 13.3751 40.646 12.1876ZM29.6877 27.9167L27.521 29.1667L25.3543 30.4167C22.5835 32.0209 20.3127 30.7084 20.3127 27.5001V25.0001V22.5001C20.3127 19.2917 22.5835 17.9792 25.3543 19.5834L27.521 20.8334L29.6877 22.0834C32.4585 23.6876 32.4585 26.3126 29.6877 27.9167Z" fill="#FF0000"/>
</svg>
