<svg width="42" height="42" viewBox="0 0 42 42" fill="none" xmlns="http://www.w3.org/2000/svg">
<path d="M34.0292 10.1166H36.7823C36.3976 9.57007 35.9928 9.06398 35.5677 8.5579L34.0292 10.1166Z" fill="#FF0000"/>
<path d="M33.4421 6.4121C32.936 5.98699 32.4299 5.58212 31.8834 5.19749V7.9506L33.4421 6.4121Z" fill="#FF0000"/>
<path d="M35.5879 8.5579L41.5597 2.58609C42.1468 1.99904 42.1468 1.02735 41.5597 0.440294C40.9726 -0.146765 40.001 -0.146765 39.4139 0.440294L33.4421 6.4121C34.2113 7.08013 34.9199 7.80889 35.5879 8.5579Z" fill="#FF0000"/>
<path d="M31.8834 3.53753C31.8834 2.70756 31.1951 2.01928 30.3651 2.01928C29.5554 2.01928 28.9076 2.66707 28.8671 3.45656C29.9197 3.96265 30.9319 4.52946 31.8834 5.19749V3.53753Z" fill="#FF0000"/>
<path d="M39.9807 11.6349C39.9807 10.8049 39.2924 10.1166 38.4625 10.1166H36.7823C37.4503 11.0681 38.0374 12.0803 38.5232 13.1329C39.3329 13.0924 39.9807 12.4446 39.9807 11.6349Z" fill="#FF0000"/>
<path d="M21.7617 27.3235H22.369C23.1585 27.3235 23.786 26.615 23.786 25.7445C23.786 24.6514 23.4823 24.4895 22.7941 24.2465L21.7617 23.8822V27.3235Z" fill="#FF0000"/>
<path d="M38.5434 13.1329C38.5232 13.1329 38.5029 13.1532 38.4625 13.1532H30.3651C30.1627 13.1532 29.9805 13.1127 29.778 13.0317C29.4137 12.8697 29.11 12.5863 28.9481 12.2017C28.8873 12.0195 28.8468 11.8373 28.8468 11.6349V3.53753C28.8468 3.51729 28.8671 3.49705 28.8671 3.45656C26.2354 2.22171 23.3204 1.51319 20.2434 1.51319C9.06904 1.51319 0 10.5822 0 21.7566C0 32.931 9.06904 42 20.2434 42C31.4178 42 40.4868 32.931 40.4868 21.7566C40.4868 18.6796 39.7783 15.7646 38.5434 13.1329ZM23.786 21.3922C25.0816 21.8376 26.8225 22.789 26.8225 25.7648C26.8225 28.2952 24.8184 30.3803 22.369 30.3803H21.7617V30.8864C21.7617 31.7164 21.0734 32.4046 20.2434 32.4046C19.4134 32.4046 18.7251 31.7164 18.7251 30.8864V30.3803H18.5632C15.8708 30.3803 13.6643 28.113 13.6643 25.3194C13.6643 24.4692 14.3526 23.7809 15.1826 23.7809C16.0125 23.7809 16.7008 24.4692 16.7008 25.2992C16.7008 26.4126 17.5308 27.3235 18.5632 27.3235H18.7251V22.8295L16.7008 22.121C15.4052 21.6756 13.6643 20.7242 13.6643 17.7484C13.6643 15.218 15.6684 13.1329 18.1178 13.1329H18.7251V12.6471C18.7251 11.8171 19.4134 11.1288 20.2434 11.1288C21.0734 11.1288 21.7617 11.8171 21.7617 12.6471V13.1532H21.9236C24.616 13.1532 26.8225 15.4204 26.8225 18.214C26.8225 19.044 26.1342 19.7323 25.3043 19.7323C24.4743 19.7323 23.786 19.044 23.786 18.214C23.786 17.1006 22.956 16.1897 21.9236 16.1897H21.7617V20.6837L23.786 21.3922Z" fill="#FF0000"/>
<path d="M16.7008 17.7686C16.7008 18.8618 17.0045 19.0237 17.6927 19.2667L18.7251 19.631V16.1897H18.1178C17.3486 16.1897 16.7008 16.8982 16.7008 17.7686Z" fill="#FF0000"/>
</svg>
