<svg width="32" height="32" viewBox="0 0 32 32" fill="none" xmlns="http://www.w3.org/2000/svg">
<path d="M19.8533 4.59999H12.1466C11.6133 4.59999 11.1866 4.17332 11.1866 3.63999C11.1866 3.10666 11.6133 2.66666 12.1466 2.66666H19.8533C20.3866 2.66666 20.8133 3.09332 20.8133 3.62666C20.8133 4.15999 20.3866 4.59999 19.8533 4.59999Z" fill="#FF0004"/>
<path fill-rule="evenodd" clip-rule="evenodd" d="M18.6666 26.6267V22.7067C18.6666 20.2933 20.2933 18.6667 22.7066 18.6667H26.6266C26.9333 18.6667 27.2266 18.6933 27.5066 18.7467C27.5333 18.4267 27.5599 18.1066 27.5599 17.7733C27.5599 11.3867 22.3733 6.19999 15.9999 6.19999C9.62661 6.19999 4.43994 11.3867 4.43994 17.7733C4.43994 24.1467 9.62661 29.3333 15.9999 29.3333C17.1333 29.3333 18.2133 29.1467 19.2533 28.8533C18.8799 28.2267 18.6666 27.48 18.6666 26.6267ZM16.9999 17.3333C16.9999 17.88 16.5466 18.3333 15.9999 18.3333C15.4533 18.3333 14.9999 17.88 14.9999 17.3333V10.6667C14.9999 10.12 15.4533 9.66666 15.9999 9.66666C16.5466 9.66666 16.9999 10.12 16.9999 10.6667V17.3333Z" fill="#FF0004"/>
<path fill-rule="evenodd" clip-rule="evenodd" d="M22.7199 20H26.6266C28.3199 20 29.3333 21.0133 29.3333 22.7067V26.6267C29.3333 28.32 28.3199 29.3333 26.6266 29.3333H22.7199C21.0133 29.3333 19.9999 28.32 19.9999 26.6267V22.7067C19.9999 21.0133 21.0133 20 22.7199 20ZM23.208 22.4427C23.0128 22.2474 22.6962 22.2474 22.5009 22.4427C22.3057 22.6379 22.3057 22.9545 22.5009 23.1498L24.0263 24.6751L22.5009 26.2005C22.3057 26.3958 22.3057 26.7123 22.5009 26.9076C22.6962 27.1029 23.0128 27.1029 23.208 26.9076L24.7334 25.3822L26.2588 26.9076C26.454 27.1029 26.7706 27.1029 26.9659 26.9076C27.1611 26.7123 27.1611 26.3958 26.9659 26.2005L25.4405 24.6751L26.9659 23.1498C27.1611 22.9545 27.1611 22.6379 26.9659 22.4427C26.7706 22.2474 26.454 22.2474 26.2588 22.4427L24.7334 23.968L23.208 22.4427Z" fill="#FF0004"/>
</svg>
