<svg width="32" height="32" viewBox="0 0 32 32" fill="none" xmlns="http://www.w3.org/2000/svg">
<path d="M19.8533 4.59999H12.1466C11.6133 4.59999 11.1866 4.17332 11.1866 3.63999C11.1866 3.10666 11.6133 2.66666 12.1466 2.66666H19.8533C20.3866 2.66666 20.8133 3.09332 20.8133 3.62666C20.8133 4.15999 20.3866 4.59999 19.8533 4.59999Z" fill="#FF9D00"/>
<path d="M18.6666 26.6267V22.7067C18.6666 20.2933 20.2933 18.6667 22.7066 18.6667H26.6266C26.9333 18.6667 27.2266 18.6933 27.5066 18.7467C27.5333 18.4267 27.5599 18.1067 27.5599 17.7733C27.5599 11.3867 22.3733 6.19999 15.9999 6.19999C9.62661 6.19999 4.43994 11.3867 4.43994 17.7733C4.43994 24.1467 9.62661 29.3333 15.9999 29.3333C17.1333 29.3333 18.2133 29.1467 19.2533 28.8533C18.8799 28.2267 18.6666 27.48 18.6666 26.6267ZM16.9999 17.3333C16.9999 17.88 16.5466 18.3333 15.9999 18.3333C15.4533 18.3333 14.9999 17.88 14.9999 17.3333V10.6667C14.9999 10.12 15.4533 9.66666 15.9999 9.66666C16.5466 9.66666 16.9999 10.12 16.9999 10.6667V17.3333Z" fill="#FF9D00"/>
<path d="M26.6266 20H22.7199C21.0133 20 19.9999 21.0133 19.9999 22.7067V26.6267C19.9999 28.32 21.0133 29.3333 22.7199 29.3333H26.6266C28.3199 29.3333 29.3333 28.32 29.3333 26.6267V22.7067C29.3333 21.0133 28.3199 20 26.6266 20ZM23.8933 26.7467C23.8933 27.1733 23.5466 27.52 23.1066 27.52C22.6799 27.52 22.3333 27.1733 22.3333 26.7467V22.5867C22.3333 22.16 22.6799 21.8133 23.1066 21.8133C23.5466 21.8133 23.8933 22.16 23.8933 22.5867V26.7467ZM26.9999 26.7467C26.9999 27.1733 26.6533 27.52 26.2266 27.52C25.7999 27.52 25.4399 27.1733 25.4399 26.7467V22.5867C25.4399 22.16 25.7999 21.8133 26.2266 21.8133C26.6533 21.8133 26.9999 22.16 26.9999 22.5867V26.7467Z" fill="#FF9D00"/>
</svg>
