<svg width="73" height="103" viewBox="0 0 73 103" fill="none" xmlns="http://www.w3.org/2000/svg">
<path d="M0 10C0 4.47715 4.47715 0 10 0H63C68.5229 0 73 4.47715 73 10V68.2749C73 71.2664 71.6607 74.1008 69.3496 76.0003L36.5 103L3.65035 76.0003C1.33928 74.1008 0 71.2664 0 68.2749V10Z" fill="#FF0000"/>
<path fill-rule="evenodd" clip-rule="evenodd" d="M36.5 49.281C44.3946 49.281 50.7944 42.9914 50.7944 35.2329C50.7944 27.4743 44.3946 21.1848 36.5 21.1848C28.6054 21.1848 22.2056 27.4743 22.2056 35.2329C22.2056 42.9914 28.6054 49.281 36.5 49.281ZM36.5 50.4658C45.0604 50.4658 52 43.6458 52 35.2329C52 26.82 45.0604 20 36.5 20C27.9396 20 21 26.82 21 35.2329C21 43.6458 27.9396 50.4658 36.5 50.4658Z" fill="white"/>
<path fill-rule="evenodd" clip-rule="evenodd" d="M48.5658 27.3203H24.6573V50.8167H48.5658V27.3203ZM23.4532 26.137V52H49.7698V26.137H23.4532Z" fill="white"/>
<path fill-rule="evenodd" clip-rule="evenodd" d="M37.7266 29.4247V37.7493L31.0927 49.8082L29.4748 48.9681L35.8921 37.3029V29.4247H37.7266Z" fill="white"/>
<path fill-rule="evenodd" clip-rule="evenodd" d="M35.9424 29.6438V37.7349L42.397 49.8082L43.9712 48.9671L37.7274 37.288V29.6438H35.9424Z" fill="white"/>
<path fill-rule="evenodd" clip-rule="evenodd" d="M49.9928 27.4279L36.7294 31.1781L23.2302 27.4334L23.7134 25.7017L36.7248 29.3111L49.501 25.6986L49.9928 27.4279Z" fill="white"/>
<path fill-rule="evenodd" clip-rule="evenodd" d="M36.7362 29.6438L49.9928 30.622L49.8482 32.274L36.7335 31.3062L23.1465 32.2717L23.0072 30.6194L36.7362 29.6438Z" fill="white"/>
</svg>
